#N canvas 205 35 1293 1010 10;
#X obj 37 43 receive fromGUI;
#X floatatom 243 445 5 0 0 0 - - -, f 5;
#X obj 539 43 list trim;
#X obj 33 435 *~ 0.5;
#X obj 35 465 +~ 0.5;
#X obj 37 503 pow~;
#X obj 17 356 osc~;
#X obj 441 935 dac~;
#X obj 55 591 *~;
#X obj 174 503 line~;
#X msg 167 476 \$1 20;
#X obj 151 381 *~, f 5;
#X obj 210 234 route /myFreqSlider;
#X obj 71 280 route /myVolSlider;
#X obj 328 285 route /myPitchSlider;
#X obj 198 313 *~ 4;
#X obj 189 354 osc~ 440;
#X obj 325 557 osc~ 19200;
#X obj 295 815 *~, f 5;
#X obj 585 363 osc~;
#X obj 819 493 line~;
#X obj 228 489 route /myDepthSlider;
#X obj 421 653 route /myDepthSliderR;
#X obj 929 426 route /myDepthSliderG;
#X obj 438 466 route /myVolSliderR;
#X obj 628 277 route /myVolSliderG;
#X obj 883 299 route /myFreqSliderG;
#X obj 613 410 *~, f 5;
#X floatatom 696 416 5 0 0 0 - - -, f 5;
#X text 279 447 slider value 0-24;
#X obj 211 883 +~, f 5;
#X obj 626 607 *~;
#X obj 700 353 *~;
#X obj 727 314 osc~ 19200;
#X msg 867 452 \$1 20;
#X obj 420 576 *~;
#X obj 612 506 pow~;
#X obj 606 465 +~ 0.5;
#X obj 596 447 *~ 0.5;
#X obj 646 312 *~ 0.0005;
#X obj 460 546 *~ 0.0005;
#X obj 369 744 pow~;
#X obj 405 710 line~;
#X msg 398 683 \$1 20;
#X obj 532 893 +~, f 5;
#X obj 692 731 send toGUI;
#X msg 706 672 list /myFreqLabelR \$1;
#X obj 894 733 send toGUI;
#X msg 908 674 list /myFreqLabelG \$1;
#X obj 849 48 tgl 15 0 empty empty empty 17 7 0 10 -262144 -1 -1 0
1;
#X msg 895 45 \; pd dsp \$1;
#X obj 805 12 route /myOnOffToggle;
#X obj 969 611 send toGUI;
#X text 733 416 slider value 0-24;
#X text 564 336 Green Osc;
#X text 319 533 Red Osc;
#X msg 987 543 list /myPitchLabel \$1;
#X obj 276 349 * 4;
#X msg 1078 124 list /myRedVolumeLabel \$1;
#X obj 1111 169 send toGUI;
#X obj 1119 253 send toGUI;
#X msg 1086 208 list /myGreenVolumeLabel \$1;
#X obj 1130 445 send toGUI;
#X msg 1097 400 list /myRedDepthLabel \$1;
#X obj 1149 529 send toGUI;
#X msg 1116 484 list /myGreenDepthLabel \$1;
#X obj 1103 76 send toGUI;
#X obj 1110 360 send toGUI;
#X msg 1070 31 list /myToneVolumeLabel \$1;
#X msg 1077 315 list /myToneDepthLabel \$1;
#X connect 0 0 2 0;
#X connect 1 0 6 0;
#X connect 1 0 46 0;
#X connect 2 0 12 0;
#X connect 2 0 13 0;
#X connect 2 0 14 0;
#X connect 2 0 21 0;
#X connect 2 0 25 0;
#X connect 2 0 24 0;
#X connect 2 0 26 0;
#X connect 2 0 23 0;
#X connect 2 0 22 0;
#X connect 2 0 51 0;
#X connect 3 0 4 0;
#X connect 4 0 5 0;
#X connect 4 0 41 0;
#X connect 5 0 8 0;
#X connect 6 0 3 0;
#X connect 8 0 30 0;
#X connect 8 0 44 0;
#X connect 9 0 5 1;
#X connect 10 0 9 0;
#X connect 11 0 8 1;
#X connect 12 0 1 0;
#X connect 13 0 11 1;
#X connect 13 0 68 0;
#X connect 14 0 15 0;
#X connect 14 0 57 0;
#X connect 15 0 16 0;
#X connect 16 0 11 0;
#X connect 17 0 35 0;
#X connect 18 0 30 1;
#X connect 19 0 38 0;
#X connect 20 0 36 1;
#X connect 21 0 10 0;
#X connect 21 0 69 0;
#X connect 22 0 43 0;
#X connect 22 0 63 0;
#X connect 23 0 34 0;
#X connect 23 0 65 0;
#X connect 24 0 40 0;
#X connect 24 0 58 0;
#X connect 25 0 39 0;
#X connect 25 0 27 1;
#X connect 25 0 61 0;
#X connect 26 0 28 0;
#X connect 28 0 19 0;
#X connect 28 0 48 0;
#X connect 30 0 7 0;
#X connect 31 0 44 1;
#X connect 32 0 31 1;
#X connect 33 0 32 1;
#X connect 34 0 20 0;
#X connect 35 0 18 1;
#X connect 36 0 31 0;
#X connect 37 0 36 0;
#X connect 38 0 37 0;
#X connect 39 0 32 0;
#X connect 40 0 35 1;
#X connect 41 0 18 0;
#X connect 42 0 41 1;
#X connect 43 0 42 0;
#X connect 44 0 7 1;
#X connect 46 0 45 0;
#X connect 48 0 47 0;
#X connect 49 0 50 0;
#X connect 51 0 49 0;
#X connect 56 0 52 0;
#X connect 57 0 56 0;
#X connect 58 0 59 0;
#X connect 61 0 60 0;
#X connect 63 0 62 0;
#X connect 65 0 64 0;
#X connect 68 0 66 0;
#X connect 69 0 67 0;
